<svg width="110" height="54" viewBox="0 0 184 59" fill="none" xmlns="http://www.w3.org/2000/svg">
<path fill-rule="evenodd" clip-rule="evenodd" d="M49.2773 47.878H49.2399H42.6375V58.5135H42.6219V58.557C40.8821 58.8434 39.1664 58.9896 37.4713 58.9896C35.7821 58.9896 34.0628 58.8434 32.3291 58.557V58.5135H32.3086V47.878H3.44225L3.42539 40.198L16.0519 28.9524C22.1628 23.8799 24.5471 21.2071 24.5471 17.1206C24.5471 12.9629 21.8073 10.7118 17.9495 10.7118C14.3013 10.7118 11.7495 12.6862 8.3097 16.8415L7.65431 17.72C6.18925 16.8899 4.82777 15.9691 3.56873 14.9517C2.31331 13.938 1.12175 12.7985 0.00488281 11.5443L0.559101 10.852L0.57353 10.8616C5.33138 4.46365 10.0278 0.992188 18.6471 0.992188C28.8315 0.992188 35.5736 6.97934 35.5736 16.206V16.3449C35.5736 24.4538 32.1965 27.3634 25.7387 33.2213H25.7351L19.2531 39.0707H32.3086V34.1686L42.6375 24.8755V39.0707H49.2399V39.0743H49.2773C49.5207 40.5605 49.646 42.0274 49.646 43.4786C49.646 44.9237 49.5207 46.393 49.2773 47.878Z" fill="#C1C1C1"/>
<path d="M60.917 46.8254V11.166L71.0045 1.16602V46.8254H60.917Z" fill="#C1C1C1"/>
<path d="M101.833 46.8254L101.037 43.5735C100.019 44.7238 98.7362 45.675 97.1877 46.4272C95.6392 47.1351 93.6704 47.489 91.2812 47.489C89.2018 47.489 87.2329 47.0908 85.3747 46.2944C83.5607 45.4538 82.0122 44.3035 80.7291 42.8434C79.4461 41.3834 78.4285 39.6579 77.6763 37.6669C76.9242 35.676 76.5481 33.5081 76.5481 31.1631C76.5481 28.8182 76.9242 26.6724 77.6763 24.7257C78.4285 22.7347 79.4461 21.0314 80.7291 19.6156C82.0122 18.1555 83.5607 17.0273 85.3747 16.2309C87.2329 15.4346 89.2018 15.0364 91.2812 15.0364C93.6704 15.0364 95.6392 15.3903 97.1877 16.0982C98.7362 16.8061 100.019 17.7573 101.037 18.9519L101.767 15.7H110.461V46.8254H101.833ZM93.5376 38.9943C94.5995 38.9943 95.5949 38.7952 96.5241 38.397C97.4532 37.9545 98.2274 37.4015 98.8469 36.7378C99.5105 36.0299 100.019 35.2114 100.373 34.2823C100.727 33.309 100.904 32.2914 100.904 31.2295C100.904 30.1234 100.727 29.1058 100.373 28.1767C100.019 27.2476 99.5105 26.4512 98.8469 25.7876C98.2274 25.0797 97.4532 24.5487 96.5241 24.1948C95.5949 23.7966 94.5995 23.5975 93.5376 23.5975C92.4315 23.5975 91.4139 23.7966 90.4848 24.1948C89.5999 24.5487 88.8478 25.0797 88.2284 25.7876C87.609 26.4512 87.1223 27.2476 86.7684 28.1767C86.4144 29.1058 86.2374 30.1234 86.2374 31.2295C86.2374 32.2914 86.4144 33.309 86.7684 34.2823C87.1223 35.2114 87.609 36.0299 88.2284 36.7378C88.8478 37.4015 89.5999 37.9545 90.4848 38.397C91.4139 38.7952 92.4315 38.9943 93.5376 38.9943Z" fill="#C1C1C1"/>
<path d="M118.274 46.8254V11.166L128.361 1.16602V18.8856C129.246 17.7795 130.463 16.8725 132.011 16.1646C133.56 15.4124 135.529 15.0364 137.918 15.0364C140.042 15.0364 141.988 15.4346 143.758 16.2309C145.572 17.0273 147.143 18.1555 148.47 19.6156C149.797 21.0314 150.815 22.7347 151.523 24.7257C152.275 26.7167 152.651 28.8846 152.651 31.2295C152.651 33.5744 152.253 35.7424 151.456 37.7333C150.704 39.68 149.642 41.3834 148.271 42.8434C146.899 44.3035 145.262 45.4538 143.36 46.2944C141.502 47.0908 139.466 47.489 137.254 47.489C134.777 47.489 132.764 47.0908 131.215 46.2944C129.666 45.4981 128.428 44.5468 127.499 43.4407L126.769 46.8254H118.274ZM135.661 38.9279C136.768 38.9279 137.763 38.7288 138.648 38.3306C139.577 37.9324 140.351 37.4015 140.971 36.7378C141.59 36.0299 142.077 35.2114 142.431 34.2823C142.785 33.309 142.962 32.2914 142.962 31.2295C142.962 30.1234 142.785 29.1058 142.431 28.1767C142.077 27.2476 141.59 26.4512 140.971 25.7876C140.351 25.0797 139.577 24.5487 138.648 24.1948C137.763 23.7966 136.768 23.5975 135.661 23.5975C134.555 23.5975 133.538 23.7966 132.609 24.1948C131.724 24.5487 130.95 25.0797 130.286 25.7876C129.666 26.4512 129.158 27.2476 128.759 28.1767C128.406 29.1058 128.229 30.1234 128.229 31.2295C128.229 32.2914 128.406 33.309 128.759 34.2823C129.158 35.2114 129.666 36.0299 130.286 36.7378C130.95 37.4015 131.724 37.9324 132.609 38.3306C133.538 38.7288 134.555 38.9279 135.661 38.9279Z" fill="#C1C1C1"/>
<path d="M155.874 36.2733H165.099C165.187 36.9812 165.386 37.6006 165.696 38.1315C166.006 38.6182 166.382 39.0385 166.824 39.3924C167.311 39.7021 167.842 39.9455 168.417 40.1225C168.992 40.2552 169.589 40.3216 170.209 40.3216C170.74 40.3216 171.248 40.2773 171.735 40.1888C172.222 40.0561 172.642 39.8791 172.996 39.6579C173.394 39.4367 173.704 39.1712 173.925 38.8615C174.146 38.5076 174.257 38.0873 174.257 37.6006C174.257 37.0697 174.102 36.6493 173.792 36.3396C173.483 35.9857 173.04 35.6981 172.465 35.4769C171.89 35.2114 171.204 35.0123 170.408 34.8796C169.656 34.7026 168.815 34.5257 167.886 34.3487C166.603 34.0832 165.276 33.7735 163.904 33.4196C162.577 33.0656 161.36 32.5789 160.254 31.9595C159.148 31.2959 158.219 30.4331 157.467 29.3713C156.759 28.2652 156.405 26.8494 156.405 25.1239C156.405 23.3099 156.781 21.7835 157.533 20.5447C158.329 19.2616 159.347 18.2219 160.586 17.4255C161.825 16.5849 163.24 15.9876 164.833 15.6337C166.426 15.2355 167.997 15.0364 169.545 15.0364C171.226 15.0364 172.841 15.2576 174.39 15.7C175.938 16.1425 177.31 16.8061 178.504 17.691C179.699 18.5759 180.694 19.6819 181.491 21.0092C182.287 22.3366 182.708 23.8851 182.752 25.6548H173.792C173.704 25.1239 173.527 24.6372 173.262 24.1948C172.996 23.7524 172.642 23.3763 172.2 23.0666C171.802 22.7569 171.337 22.5357 170.806 22.4029C170.275 22.2259 169.722 22.1375 169.147 22.1375C168.616 22.1375 168.107 22.2038 167.621 22.3366C167.178 22.425 166.78 22.5799 166.426 22.8011C166.116 23.0223 165.851 23.2878 165.63 23.5975C165.408 23.9072 165.298 24.2611 165.298 24.6593C165.298 25.0575 165.408 25.4115 165.63 25.7212C165.895 25.9866 166.271 26.23 166.758 26.4512C167.244 26.6724 167.842 26.8715 168.55 27.0485C169.302 27.1812 170.142 27.3361 171.072 27.5131C172.443 27.7785 173.859 28.0882 175.319 28.4422C176.779 28.7961 178.106 29.327 179.301 30.0349C180.495 30.6986 181.469 31.6056 182.221 32.7559C183.017 33.862 183.415 35.3442 183.415 37.2024C183.415 39.0164 182.995 40.587 182.155 41.9143C181.358 43.1974 180.318 44.2592 179.035 45.0999C177.752 45.9405 176.27 46.5599 174.589 46.9581C172.952 47.4005 171.293 47.6217 169.611 47.6217C167.886 47.6217 166.205 47.3784 164.568 46.8917C162.975 46.4493 161.537 45.7635 160.254 44.8344C158.971 43.9053 157.931 42.7328 157.135 41.317C156.338 39.9012 155.918 38.22 155.874 36.2733Z" fill="#C1C1C1"/>
</svg>