<svg width="195" height="38" viewBox="0 0 195 38" fill="none" xmlns="http://www.w3.org/2000/svg">
<path fill-rule="evenodd" clip-rule="evenodd" d="M75.4598 0.556212C75.3166 0.591445 74.6177 0.715809 73.9069 0.832322C68.3845 1.73827 64.5054 5.25041 63.8056 9.97812L63.612 11.2839L63.82 12.7113C64.4605 17.1118 66.8986 19.5314 73.805 22.6211C78.0121 24.5031 78.9302 25.2238 78.9315 26.6454C78.9325 27.4858 78.5625 27.9487 77.5869 28.3268L76.762 28.6465L74.8521 28.6371C73.8017 28.6319 72.3563 28.525 71.6399 28.3992C69.8462 28.0845 66.7511 27.1271 65.1322 26.386C64.3905 26.0463 63.7151 25.7685 63.6317 25.7685C63.548 25.7685 63.4796 27.7998 63.4796 30.2823V34.7957L63.7105 34.9881C64.0917 35.3061 66.124 36.0199 67.9381 36.4729C70.759 37.1776 72.5326 37.3678 76.1543 37.3537L79.54 37.341L81.363 36.9595C82.6706 36.6859 83.6853 36.3323 84.9518 35.7085L86.7174 34.8386L87.7433 33.8082C88.8283 32.7182 89.824 31.0051 90.2363 29.5186C90.3904 28.9629 90.4735 27.8238 90.4652 26.379L90.4519 24.1116L90.0596 22.9777C89.5738 21.573 89.1482 20.8626 88.1399 19.7722C86.7047 18.2202 84.1469 16.7743 79.6268 14.9595C76.081 13.5356 75.1148 12.8055 75.1133 11.5485C75.11 8.83131 81.7963 8.54526 87.0673 11.0369C87.7695 11.3688 88.375 11.6404 88.413 11.6404C88.4507 11.6404 88.4816 9.64096 88.4816 7.19715V2.75374L88.0041 2.50834C87.0358 2.01037 84.3567 1.18273 82.8389 0.912551C81.4176 0.659639 76.0859 0.402198 75.4598 0.556212ZM0.707435 1.39308C0.661945 1.51309 0.644909 9.49934 0.66939 19.1405L0.714196 36.67L13.519 36.7146L26.3238 36.7593V32.3104V27.8616H18.7712H11.2185V25.4197V22.9777H16.6877H22.1569V18.9661V14.9544H16.6877H11.2185V12.5125V10.0706H18.7712H26.3238V5.62282V1.17506H13.5571H0.790072L0.707435 1.39308ZM28.7547 18.9661V36.7621L34.0069 36.7162L39.259 36.67L39.3043 29.3734L39.3497 22.0768L45.2075 29.4165L51.0655 36.7565L57.1857 36.7567C60.552 36.7569 63.3061 36.7173 63.3061 36.6687C63.3061 36.62 60.0562 32.4999 56.084 27.5128L48.8622 18.4456L50.0678 16.918C50.731 16.0778 53.7138 12.2997 56.6962 8.52204C59.6786 4.74423 62.1602 1.54483 62.211 1.4121L62.3032 1.17052L56.1739 1.2164L50.0445 1.26227L44.7385 7.9843L39.4325 14.7064L39.3458 7.9843L39.259 1.26227L34.0069 1.21604L28.7547 1.16999V18.9661ZM90.5653 5.62282V10.0706H95.253H99.9409V23.4164V36.7621L105.193 36.7162L110.445 36.67L110.49 23.3703L110.534 10.0706H115.221H119.908V5.62282V1.17506H105.236H90.5653V5.62282ZM122.165 18.9661V36.7593L134.97 36.7146L147.775 36.67L147.821 32.2657L147.867 27.8616H140.225H132.582V25.4197V22.9777H138.052H143.521V18.9661V14.9544H138.052H132.582V12.5125V10.0706H140.225H147.867L147.821 5.66642L147.775 1.26227L134.97 1.21762L122.165 1.1728V18.9661ZM150.292 18.9542V36.7571H155.501H160.71V31.5244V26.2918H162.405H164.1L166.7 31.5244L169.299 36.7571H174.641C177.579 36.7571 179.982 36.7173 179.982 36.6689C179.982 36.6204 178.664 33.9322 177.053 30.6948L174.125 24.8092L175.246 24.1116C177.586 22.6538 179.488 19.9053 180.072 17.1346C180.413 15.5185 180.414 12.0764 180.075 10.4168C179.927 9.6987 179.485 8.45089 179.091 7.64368L178.374 6.17591L177.217 5.02736C175.428 3.24999 173.601 2.30425 170.591 1.5961L169.304 1.29348L159.798 1.22232L150.292 1.15117V18.9542ZM183.362 1.39046C183.316 1.51186 183.299 9.49934 183.323 19.1405L183.368 36.67L188.618 36.7162L193.869 36.7621L193.915 27.5717L193.959 18.3811L199.422 27.5717L204.887 36.7623L209.927 36.7162L214.968 36.67V18.9661V1.26227L209.717 1.21604L204.467 1.16999L204.421 10.3301L204.377 19.4903L198.975 10.3762L193.573 1.26227L188.509 1.21604L183.446 1.16982L183.362 1.39046ZM167.392 10.0446C169.134 10.833 169.638 11.79 169.54 14.1252L169.478 15.5909L169.044 16.2367C168.773 16.6395 168.25 17.0611 167.655 17.3574L166.7 17.8323L163.705 17.8904L160.71 17.9483V13.7277V9.50702L163.618 9.57993L166.526 9.65282L167.392 10.0446Z" fill="#3B4A3F"/>
</svg>
