<svg width="480" height="96" viewBox="0 0 173 20" fill="none" xmlns="http://www.w3.org/2000/svg">
<path fill-rule="evenodd" clip-rule="evenodd" d="M40.4333 0.0303552C40.3559 0.0494002 39.9781 0.116624 39.5939 0.179604C36.6088 0.669306 34.512 2.56776 34.1337 5.12328L34.0291 5.82908L34.1415 6.60068C34.4877 8.97932 35.8056 10.2872 39.5388 11.9573C41.8129 12.9746 42.3092 13.3642 42.3099 14.1326C42.3104 14.5869 42.1104 14.8371 41.5831 15.0415L41.1372 15.2143L40.1048 15.2092C39.537 15.2064 38.7557 15.1486 38.3685 15.0806C37.3989 14.9105 35.7259 14.393 34.8508 13.9924C34.4499 13.8088 34.0848 13.6586 34.0397 13.6586C33.9945 13.6586 33.9575 14.7566 33.9575 16.0985V18.5382L34.0823 18.6422C34.2884 18.8141 35.3869 19.1999 36.3675 19.4448C37.8923 19.8257 38.851 19.9285 40.8087 19.9209L42.6388 19.914L43.6242 19.7078C44.331 19.5599 44.8795 19.3688 45.5641 19.0316L46.5185 18.5614L47.073 18.0044C47.6595 17.4152 48.1977 16.4892 48.4206 15.6857C48.5039 15.3853 48.5488 14.7696 48.5443 13.9886L48.5371 12.763L48.3251 12.1501C48.0625 11.3908 47.8324 11.0068 47.2874 10.4174C46.5116 9.57848 45.129 8.79689 42.6857 7.81589C40.7691 7.04626 40.2468 6.6516 40.246 5.97211C40.2442 4.50338 43.8584 4.34876 46.7076 5.69558C47.0872 5.875 47.4145 6.02179 47.435 6.02179C47.4554 6.02179 47.4721 4.94103 47.4721 3.62005V1.21821L47.214 1.08556C46.6906 0.816386 45.2424 0.369013 44.422 0.222971C43.6537 0.0862615 40.7717 -0.0528959 40.4333 0.0303552ZM0.0266116 0.482718C0.00202252 0.547584 -0.00718582 4.86448 0.00604722 10.0759L0.0302662 19.5513L6.9518 19.5754L13.8733 19.5996V17.1948V14.79H9.79081H5.70827V13.4701V12.1501H8.66459H11.6209V9.98164V7.81315H8.66459H5.70827V6.4932V5.17325H9.79081H13.8733V2.76906V0.364866H6.97236H0.0712803L0.0266116 0.482718ZM15.1873 9.98164V19.6011L18.0263 19.5763L20.8653 19.5513L20.8898 15.6072L20.9143 11.6631L24.0807 15.6305L27.2472 19.5981L30.5554 19.5982C32.375 19.5983 33.8637 19.5769 33.8637 19.5506C33.8637 19.5243 32.107 17.2972 29.9599 14.6015L26.0562 9.7003L26.7079 8.87458C27.0664 8.42042 28.6787 6.37817 30.2908 4.33621C31.9029 2.29415 33.2443 0.564744 33.2718 0.492996L33.3216 0.362414L30.0085 0.387216L26.6953 0.412007L23.8272 4.04554L20.9591 7.67908L20.9122 4.04554L20.8653 0.412007L18.0263 0.38702L15.1873 0.362126V9.98164ZM48.5984 2.76906V5.17325H51.1323H53.6663V12.3872V19.6011L56.5053 19.5763L59.3443 19.5513L59.3684 12.3623L59.3924 5.17325H61.9258H64.4592V2.76906V0.364866H56.5288H48.5984V2.76906ZM65.6793 9.98164V19.5996L72.6008 19.5754L79.5224 19.5513L79.5474 17.1706L79.5725 14.79H75.4414H71.3104V13.4701V12.1501H74.2667H77.223V9.98164V7.81315H74.2667H71.3104V6.4932V5.17325H75.4414H79.5725L79.5474 2.79263L79.5224 0.412007L72.6008 0.387872L65.6793 0.363646V9.98164ZM80.8832 9.97523V19.5984H83.6988H86.5143V16.7699V13.9415H87.4306H88.347L89.7522 16.7699L91.1574 19.5984H94.0447C95.6326 19.5984 96.9318 19.5769 96.9318 19.5507C96.9318 19.5245 96.2195 18.0714 95.3487 16.3215L93.7657 13.1401L94.3715 12.763C95.6368 11.975 96.6647 10.4893 96.9805 8.99167C97.1648 8.11806 97.1654 6.25749 96.9818 5.3604C96.9023 4.97224 96.6631 4.29775 96.4501 3.86142L96.0627 3.06803L95.4374 2.44719C94.4699 1.48645 93.4827 0.975242 91.8554 0.592457L91.16 0.428879L86.0216 0.390416L80.8832 0.351952V9.97523ZM98.7588 0.481302C98.7339 0.546923 98.7245 4.86448 98.7377 10.0759L98.7619 19.5513L101.6 19.5763L104.438 19.6011L104.463 14.6333L104.487 9.66541L107.44 14.6333L110.394 19.6012L113.118 19.5763L115.843 19.5513V9.98164V0.412007L113.005 0.38702L110.167 0.362126L110.142 5.31355L110.118 10.265L107.198 5.33843L104.278 0.412007L101.541 0.38702L98.804 0.362034L98.7588 0.481302ZM90.1265 5.1592C91.0682 5.58535 91.3404 6.10268 91.2872 7.36493L91.2538 8.15719L91.0192 8.50632C90.8728 8.72401 90.5904 8.95189 90.2684 9.11207L89.7522 9.3688L88.1332 9.4002L86.5143 9.4315V7.15007V4.86863L88.0863 4.90804L89.6583 4.94744L90.1265 5.1592Z" fill="#3B4A3F"/>
<path d="M120.961 4.04182C122.43 1.88153 124.89 0.445149 127.738 0.0851802C128.689 -0.0349352 130.895 0.038888 131.83 0.222172C133.111 0.472963 134.536 1.05072 135.481 1.70183L135.88 1.97666V3.29208C135.88 4.0156 135.859 4.60751 135.834 4.60751C135.809 4.60751 135.587 4.45222 135.341 4.26243C134.668 3.74209 133.313 3.13445 132.314 2.90449C131.688 2.76043 130.989 2.68604 129.967 2.65455L128.513 2.60977L127.622 2.80814C127.052 2.93485 126.389 3.17404 125.784 3.47084L124.838 3.93518L124.177 4.59242C122.776 5.98563 122.079 7.77774 122.087 9.96631C122.095 12.2398 122.769 13.9811 124.189 15.403L124.853 16.0671L125.744 16.5146C126.235 16.7607 126.974 17.0528 127.387 17.164L128.137 17.366L129.686 17.3656C132.278 17.3649 133.817 16.9015 135.597 15.5852L136.167 15.1638L136.141 16.5522L136.115 17.9407L135.552 18.3419C133.763 19.6166 130.775 20.2127 127.858 19.877C123.366 19.3601 120.139 16.354 119.4 11.9977L119.245 11.0841L119.296 9.51933L119.347 7.95452L119.536 7.24741C119.882 5.95206 120.298 5.01688 120.961 4.04182Z" fill="#3B4A3F"/>
<path d="M139.165 19.6034V9.98413V0.364815H145.453H151.741V1.59048V2.81615H146.861H141.98V5.83318V8.8502H145.594H149.207V9.98159V11.113H145.595H141.982L141.958 15.3321L141.934 19.5512L140.549 19.5773L139.165 19.6034Z" fill="#3B4A3F"/>
<path fill-rule="evenodd" clip-rule="evenodd" d="M161.176 0.137316C157.432 0.721771 154.507 3.20242 153.404 6.72885C153.028 7.93227 152.933 8.76526 152.985 10.4205L153.031 11.9144L153.267 12.8148C154.248 16.5509 157.183 19.1723 161.125 19.8345L162.109 20L163.424 19.9447C164.907 19.8826 165.636 19.7417 166.853 19.2827C169.739 18.1937 171.907 15.761 172.673 12.7517C173.241 10.5188 173.06 7.84808 172.202 5.81941C171.522 4.21237 170.148 2.54574 168.775 1.66138C166.613 0.269115 163.864 -0.282239 161.176 0.137316ZM167.625 4.17428C166.903 3.59219 165.566 2.96238 164.659 2.77778C163.213 2.48324 161.488 2.61928 160.094 3.13793C158.482 3.73719 156.904 5.35978 156.266 7.07308C155.532 9.04452 155.634 11.6791 156.514 13.4961C157.906 16.3696 160.999 17.8775 164.31 17.2967C165.903 17.017 166.97 16.4596 168.129 15.3015L168.891 14.5401L169.326 13.6515C169.565 13.1628 169.834 12.4871 169.924 12.1501L170.088 11.5372L170.089 9.98159L170.089 8.42593L169.873 7.67592C169.471 6.28262 168.647 4.99944 167.625 4.17428Z" fill="#3B4A3F"/>
</svg>

