<?xml version="1.0" encoding="UTF-8" standalone="no"?> <svg xmlns:dc="http://purl.org/dc/elements/1.1/" xmlns:cc="http://creativecommons.org/ns#" xmlns:rdf="http://www.w3.org/1999/02/22-rdf-syntax-ns#" xmlns:svg="http://www.w3.org/2000/svg" xmlns="http://www.w3.org/2000/svg" xmlns:sodipodi="http://sodipodi.sourceforge.net/DTD/sodipodi-0.dtd" xmlns:inkscape="http://www.inkscape.org/namespaces/inkscape" width="315pt" height="53pt" viewBox="0 0 375 53" version="1.1" id="svg15" sodipodi:docname="logo-dark.svg" inkscape:version="0.92.5 (2060ec1f9f, 2020-04-08)"><metadata id="metadata21"></metadata><defs id="defs19"></defs><g id="surface1" transform="translate(-1.6680376,-67.498049)"><path style="fill:#C1C1C1;fill-opacity:1;fill-rule:nonzero;stroke:none" d="m 325.91016,105.13281 h 1.875 l 5.89453,-18.128904 h -2.10157 l -4.80468,15.390624 -5.10547,-15.390624 h -1.6875 L 314.875,102.39453 310.07422,87.003906 h -2.10156 l 5.89062,18.128904 h 1.875 l 5.10547,-15.499998 z m 10.39453,-9.082029 c 0,5.589849 3.79297,9.531249 9.08593,9.531249 3,0 5.28907,-1.05078 7.08985,-2.92578 l -1.01172,-1.27734 c -1.55078,1.63672 -3.71484,2.55078 -5.96875,2.51562 -4.23828,0 -6.86719,-3.26562 -7.05469,-7.20703 h 15.16406 v -0.523438 c 0,-5.21875 -3.04296,-9.609374 -8.55859,-9.609374 -5.02734,0 -8.74609,4.242187 -8.74609,9.496093 z m 8.70703,-7.808593 c 4.54297,0 6.57031,3.828124 6.60937,6.90625 h -13.17578 c 0.15235,-3.152344 2.28906,-6.90625 6.56641,-6.90625 z m 13.625,16.890622 h 1.95312 v -2.89062 c 1.42969,2.07812 3.78125,3.32422 6.30469,3.33984 4.80469,0 8.10547,-3.67578 8.10547,-9.496092 0,-5.738282 -3.26563,-9.53125 -8.10547,-9.53125 -2.55469,0 -4.84375,1.3125 -6.30469,3.378906 v -9.832032 h -1.95312 z m 1.95312,-4.54297 v -8.968746 c 1.05078,-1.726563 3.45313,-3.300782 5.96485,-3.300782 4.05468,0 6.34375,3.375 6.34375,7.765626 0,4.394532 -2.28907,7.734372 -6.34375,7.734372 -2.51172,0 -4.91407,-1.5039 -5.96485,-3.23047 z m 0,0" id="path2" inkscape:connector-curvature="0"></path><path style="fill:#C1C1C1;fill-opacity:1;fill-rule:nonzero;stroke:none" d="m 61.546875,105.64063 h 13.585937 c 4.765626,0 7.28125,-3 7.28125,-6.753911 0,-3.152344 -2.140624,-5.742188 -4.804687,-6.15625 2.367187,-0.488281 4.316406,-2.589844 4.316406,-5.742188 0,-3.339843 -2.4375,-6.378906 -7.207031,-6.378906 H 61.546875 Z m 5.332031,-14.972661 v -5.515625 h 6.679688 c 1.800781,0 2.925781,1.199218 2.925781,2.738281 0,1.613281 -1.125,2.777344 -2.925781,2.777344 z m 0,10.433591 v -5.894529 h 6.867188 c 2.101562,0 3.226562,1.351563 3.226562,2.929688 0,1.800781 -1.199218,2.964841 -3.226562,2.964841 z m 27.84375,4.99219 c 6.007814,0 9.609374,-4.35547 9.609374,-9.535156 0,-5.140625 -3.60156,-9.492188 -9.609374,-9.492188 -5.964844,0 -9.566406,4.351563 -9.566406,9.492188 0,5.179686 3.601562,9.535156 9.566406,9.535156 z m 0,-4.24219 c -2.964844,0 -4.613281,-2.437498 -4.613281,-5.292966 0,-2.8125 1.648437,-5.253906 4.613281,-5.253906 2.964844,0 4.65625,2.441406 4.65625,5.253906 0,2.855468 -1.691406,5.292966 -4.65625,5.292966 z m 13.136724,3.78907 H 112.625 V 80.609375 h -4.76562 z m 11.85937,-20.789068 c 0.75781,0 1.48438,-0.300781 2.01953,-0.835937 0.53516,-0.535156 0.83594,-1.261719 0.83594,-2.019531 0,-0.753906 -0.30078,-1.480469 -0.83594,-2.015625 -0.53515,-0.535157 -1.26172,-0.835938 -2.01953,-0.835938 -1.57031,0.01172 -2.83984,1.28125 -2.85156,2.851563 0.0117,1.570312 1.28125,2.84375 2.85156,2.855468 z m -2.36328,20.789068 h 4.76562 V 87.515625 h -4.76562 z m 9.11719,4.65625 c 2.29296,1.98828 4.6914,2.69921 7.80859,2.69921 4.46484,0 9.79687,-1.6875 9.79687,-8.59375 V 87.515625 h -4.80468 v 2.324219 c -1.46485,-1.835938 -3.41407,-2.777344 -5.59375,-2.777344 -4.57813,0 -7.99219,3.304688 -7.99219,9.234375 0,6.042965 3.45312,9.230465 7.99219,9.230465 2.21484,0 4.16797,-1.05078 5.59375,-2.85156 v 1.83985 c 0,3.5625 -2.70313,4.57812 -4.99219,4.57812 -2.28906,0 -4.20313,-0.63672 -5.66797,-2.25391 z m 12.80078,-11.074224 c -0.78907,1.164064 -2.51563,2.062504 -4.09375,2.062504 -2.69922,0 -4.57813,-1.875004 -4.57813,-4.988285 0,-3.117187 1.87891,-4.992187 4.57813,-4.992187 1.57812,0 3.30468,0.863281 4.09375,2.0625 z m 10.58203,6.417974 h 4.80469 V 91.679688 h 3.67968 v -4.164063 h -3.67968 v -0.902344 c 0,-1.726562 0.89843,-2.625 2.25,-2.625 0.53906,-0.01953 1.07031,0.109375 1.53906,0.375 l 0.97656,-3.378906 c -0.86328,-0.449219 -2.10156,-0.75 -3.45312,-0.75 -3.5625,0 -6.11719,2.363281 -6.11719,6.304687 v 0.976563 h -3 v 4.164063 h 3 z m 19.6289,0.45312 c 6.00391,0 9.60938,-4.35547 9.60938,-9.535156 0,-5.140625 -3.60547,-9.492188 -9.60938,-9.492188 -5.96875,0 -9.57031,4.351563 -9.57031,9.492188 0,5.179686 3.60156,9.535156 9.57031,9.535156 z m 0,-4.24219 c -2.96484,0 -4.61718,-2.437498 -4.61718,-5.292966 0,-2.8125 1.65234,-5.253906 4.61718,-5.253906 2.96485,0 4.65235,2.441406 4.65235,5.253906 0,2.855468 -1.6875,5.292966 -4.65235,5.292966 z m 13.13672,3.78907 h 4.76563 V 93.667969 c 0.78906,-1.160157 2.89062,-2.0625 4.46484,-2.0625 0.44141,0.0039 0.88281,0.05078 1.31641,0.148437 v -4.652344 c -2.25391,0 -4.50391,1.277344 -5.78125,2.890626 v -2.476563 h -4.76563 z m 12.34766,-9.082036 c 0,5.820316 4.16406,9.535156 9.68359,9.535156 2.8125,0 5.66407,-0.86328 7.46485,-2.51562 L 210.01562,100.5 c -1.16015,1.125 -3.15234,1.80078 -4.83984,1.80078 -3.07812,0 -4.91797,-1.91406 -5.21484,-4.203124 h 13.47265 v -1.050781 c 0,-5.929687 -3.67968,-9.980469 -9.08203,-9.980469 -5.51953,-0.0039 -9.38281,4.238282 -9.38281,9.492188 z m 9.38281,-5.703125 c 3.15235,0 4.35156,2.289062 4.46485,4.015625 h -8.9336 c 0.22656,-1.800782 1.50391,-4.015625 4.46875,-4.015625 z m 24.76953,14.785161 h 4.76563 V 92.84375 c 0,-3.527344 -1.91406,-5.777344 -5.89453,-5.777344 -2.96485,0 -5.17969,1.425782 -6.33985,2.8125 v -2.363281 h -4.76562 v 18.125005 h 4.76562 V 93.445312 c 0.95703,-1.328124 2.48828,-2.121093 4.12891,-2.140624 2.02344,0 3.33984,0.863281 3.33984,3.378906 z m 11.85938,-20.789068 c 0.75781,0 1.48437,-0.300781 2.01953,-0.835937 0.53516,-0.535156 0.83594,-1.261719 0.83203,-2.019531 0.004,-0.753906 -0.29687,-1.480469 -0.83203,-2.015625 -0.53516,-0.535157 -1.26172,-0.835938 -2.01953,-0.835938 -1.57031,0.01172 -2.83985,1.28125 -2.85156,2.851563 0.0117,1.570312 1.28125,2.839844 2.85156,2.855468 z m -2.36328,20.789068 h 4.76562 V 87.515625 h -4.76562 z m 21.72656,0 h 4.76953 V 92.84375 c 0,-3.527344 -1.91406,-5.777344 -5.89453,-5.777344 -2.96484,0 -5.17969,1.425782 -6.34375,2.8125 v -2.363281 h -4.76563 V 105.64063 H 252.875 V 93.445312 c 0.96094,-1.328124 2.49219,-2.121093 4.12891,-2.140624 2.02734,0 3.33984,0.863281 3.33984,3.378906 z m 9.12109,4.65625 c 2.28907,1.98828 4.69141,2.69921 7.80469,2.69921 4.46875,0 9.79688,-1.6875 9.79688,-8.59375 V 87.515625 h -4.80469 v 2.324219 c -1.46094,-1.835938 -3.41406,-2.777344 -5.58985,-2.777344 -4.57812,0 -7.99609,3.304688 -7.99609,9.234375 0,6.042965 3.45313,9.230465 7.99609,9.230465 2.21485,0 4.16407,-1.05078 5.58985,-2.85156 v 1.83985 c 0,3.5625 -2.70313,4.57812 -4.99219,4.57812 -2.28906,0 -4.20312,-0.63672 -5.66406,-2.25391 z m 12.79688,-11.074224 c -0.78906,1.164064 -2.51563,2.062504 -4.08985,2.062504 -2.70312,0 -4.57812,-1.875004 -4.57812,-4.988285 0,-3.117187 1.875,-4.992187 4.57812,-4.992187 1.57422,0 3.30079,0.863281 4.08985,2.0625 z m 7.95703,4.054684 c 1.91406,1.76172 4.95312,2.8125 8.10547,2.8125 5.03125,0 7.84375,-2.51171 7.84375,-5.8164 0,-4.503909 -4.16406,-5.328128 -7.28125,-5.92969 -2.02344,-0.414062 -3.45313,-0.824219 -3.45313,-1.953125 0,-1.050781 1.12891,-1.6875 2.85547,-1.6875 2.21485,0 4.27735,0.9375 5.36719,2.101563 l 1.91406,-3.265626 C 303.76562,88.113281 301.32812,87.0625 298.25,87.0625 c -4.76563,0 -7.42969,2.664062 -7.42969,5.707031 0,4.3125 4.01563,5.066407 7.12891,5.664063 2.0625,0.414062 3.64062,0.863281 3.64062,2.140626 0,1.125 -0.97656,1.83984 -3.03906,1.83984 -2.25391,0 -4.95312,-1.23828 -6.26953,-2.47656 z m 0,0" id="path4" inkscape:connector-curvature="0"></path><path style="fill:#C1C1C1;fill-opacity:1;fill-rule:nonzero;stroke:none" d="m 23.957031,68.621094 c 0.445313,-0.449219 1.050781,-0.703125 1.6875,-0.703125 0.632813,0 1.238281,0.253906 1.683594,0.703125 l 19.929687,20.0625 c 0.679688,0.679687 0.878907,1.703125 0.507813,2.589844 -0.367187,0.886718 -1.234375,1.460937 -2.191406,1.460937 H 5.714844 c -0.960938,0 -1.828125,-0.574219 -2.195313,-1.460937 -0.371093,-0.886719 -0.167969,-1.910157 0.507813,-2.589844 z m 0,0" id="path6" inkscape:connector-curvature="0"></path><path style="fill:#C1C1C1;fill-opacity:1;fill-rule:nonzero;stroke:none" d="m 11.378906,95.792969 h 5.941406 c 0.65625,0 1.191407,0.53125 1.191407,1.1875 v 21.906251 c 0,0.65625 -0.535157,1.19141 -1.191407,1.19141 h -5.941406 c -0.65625,0 -1.191406,-0.53516 -1.191406,-1.19141 V 96.980469 c 0,-0.65625 0.535156,-1.1875 1.191406,-1.1875 z m 0,0" id="path8" inkscape:connector-curvature="0"></path><path style="fill:#C1C1C1;fill-opacity:1;fill-rule:nonzero;stroke:none" d="m 22.757812,95.792969 h 5.941407 c 0.65625,0 1.1875,0.53125 1.1875,1.1875 v 16.984371 c 0,0.65625 -0.53125,1.1875 -1.1875,1.1875 h -5.941407 c -0.660156,0 -1.191406,-0.53125 -1.191406,-1.1875 V 96.980469 c 0,-0.65625 0.53125,-1.1875 1.191406,-1.1875 z m 0,0" id="path10" inkscape:connector-curvature="0"></path><path style="fill:#C1C1C1;fill-opacity:1;fill-rule:nonzero;stroke:none" d="m 33.625,95.792969 h 6.113281 c 0.65625,0 1.1875,0.53125 1.1875,1.1875 v 12.058591 c 0,0.65625 -0.53125,1.1875 -1.1875,1.1875 H 33.625 c -0.65625,0 -1.1875,-0.53125 -1.1875,-1.1875 V 96.980469 c 0,-0.65625 0.53125,-1.1875 1.1875,-1.1875 z m 0,0" id="path12" inkscape:connector-curvature="0"></path></g></svg> 