<svg width="134" height="62" viewBox="0 0 134 62" fill="none" xmlns="http://www.w3.org/2000/svg">
<g id="resOS-logo-light 1" clip-path="url(#clip0_412_10)">
<g id="Lag 2">
<g id="Lag 1">
<path id="Vector" d="M133.702 36.9303C133.714 38.258 133.395 39.5678 132.776 40.7426C132.154 41.9134 131.286 42.9362 130.232 43.7412C129.086 44.6161 127.794 45.2805 126.416 45.703C124.845 46.1948 123.207 46.4355 121.561 46.4165C120.737 46.4146 119.914 46.3663 119.095 46.2715C118.214 46.1824 117.343 46.0486 116.495 45.8814C115.647 45.7142 114.799 45.5135 113.996 45.2795C113.282 45.0768 112.587 44.8119 111.92 44.488L112.567 41.7793C115.402 43.0295 118.463 43.6858 121.561 43.7077C123.831 43.7941 126.075 43.196 128 41.9911C128.832 41.4599 129.508 40.7178 129.959 39.8405C130.41 38.9631 130.619 37.982 130.567 36.9972C130.589 36.0345 130.342 35.0846 129.852 34.255C129.364 33.4587 128.737 32.7565 128 32.1817C127.198 31.5651 126.339 31.0276 125.434 30.5765C124.474 30.1083 123.503 29.6513 122.499 29.2277C121.171 28.6592 119.899 28.113 118.682 27.4776C117.535 26.9289 116.457 26.248 115.468 25.4488C114.574 24.7327 113.818 23.8602 113.237 22.8739C112.673 21.8509 112.392 20.6968 112.422 19.5297C112.363 18.3462 112.596 17.1664 113.1 16.0936C113.604 15.0208 114.364 14.0879 115.312 13.3765C117.486 11.8312 120.111 11.0474 122.778 11.1471C126.035 11.0759 129.255 11.8436 132.129 13.3765L131.415 16.0184C130.017 15.3491 128.56 14.8117 127.063 14.4132C125.637 14.0511 124.171 13.8713 122.7 13.8782C120.831 13.7569 118.974 14.2588 117.421 15.305C116.8 15.7936 116.307 16.4247 115.982 17.1447C115.658 17.8647 115.512 18.6523 115.558 19.4406C115.539 20.306 115.763 21.1593 116.205 21.9041C116.659 22.6258 117.255 23.2477 117.957 23.7322C118.743 24.2854 119.58 24.7632 120.457 25.159C121.383 25.5826 122.342 26.0396 123.347 26.5189C124.351 26.9983 125.311 27.4219 126.527 27.9458C127.717 28.464 128.841 29.1227 129.875 29.9076C130.936 30.6992 131.844 31.6776 132.553 32.7947C133.334 34.031 133.733 35.4691 133.702 36.9303Z" fill="#C1C1C1"/>
<path id="Vector_2" d="M92.7151 11.1473C90.344 11.1408 87.9962 11.6146 85.8135 12.54C83.6309 13.4654 81.6587 14.8232 80.0161 16.5313L80.4848 20.3436C82.1777 17.8553 84.59 15.9418 87.3997 14.8584C90.2095 13.775 93.2832 13.5732 96.2107 14.28C99.1383 14.9867 101.78 16.5684 103.785 18.814C105.789 21.0597 107.06 23.8624 107.429 26.8484C107.797 29.8344 107.246 32.8617 105.847 35.5263C104.449 38.1909 102.27 40.3663 99.6021 41.7621C96.9341 43.1579 93.9033 43.7078 90.9143 43.3385C87.9253 42.9691 85.12 41.6981 82.8728 39.6949L83.3638 43.5295C86.1576 45.2977 89.3966 46.2371 92.7039 46.2383C97.3652 46.2383 101.836 44.3886 105.132 41.0961C108.428 37.8035 110.279 33.3379 110.279 28.6816C110.279 24.0253 108.428 19.5597 105.132 16.2672C101.836 12.9747 97.3652 11.125 92.7039 11.125L92.7151 11.1473Z" fill="#C1C1C1"/>
<path id="Vector_3" d="M15.1934 17.7684H14.1779C12.0126 17.7164 9.87564 18.2684 8.00699 19.3625C6.11605 20.5727 4.53717 22.211 3.39832 24.1446V44.3765H0.787109V15.84H3.25325V21.7368C4.17631 19.8673 5.58244 18.2779 7.32629 17.1331C9.14975 15.9691 11.2779 15.3716 13.4414 15.4164C13.765 15.4164 14.0887 15.4164 14.4011 15.4164C14.6714 15.4293 14.9384 15.4819 15.1934 15.5725V17.7684Z" fill="#C1C1C1"/>
<path id="Vector_4" d="M18.6414 30.4096C18.6414 34.2888 19.5453 37.2985 21.353 39.461C23.1608 41.6236 25.8724 42.6937 29.4879 42.6937C30.8989 42.6996 32.3049 42.5273 33.6726 42.1809C35.0261 41.8299 36.3446 41.356 37.6117 40.7652L38.2143 42.872C36.8942 43.5367 35.5011 44.0455 34.0631 44.388C32.4642 44.7839 30.8228 44.9823 29.1755 44.9788C27.2305 45.0279 25.2986 44.6473 23.5179 43.8641C21.9164 43.1448 20.5033 42.0651 19.389 40.7095C18.2506 39.3025 17.4012 37.6851 16.8894 35.9497C16.3082 34.0271 16.0223 32.0277 16.0413 30.0195C16.0183 28.0037 16.3043 25.9962 16.8894 24.0669C17.3891 22.3714 18.207 20.7864 19.2998 19.3963C20.3161 18.0966 21.6181 17.0478 23.105 16.3308C24.6853 15.5747 26.4191 15.1932 28.1712 15.2161C29.5992 15.1436 31.0258 15.3867 32.349 15.9282C33.6722 16.4696 34.8595 17.296 35.8263 18.3485C37.7846 20.7752 38.7709 23.842 38.5937 26.954C38.5921 27.5162 38.5623 28.078 38.5044 28.6372C38.4375 29.2057 38.3705 29.7519 38.2924 30.3873L18.6414 30.4096ZM35.8709 28.1244C36.1164 24.7655 35.5436 22.131 34.1524 20.2212C33.4357 19.2596 32.4894 18.4927 31.3998 17.9904C30.3102 17.488 29.112 17.2662 27.9145 17.3452C26.4966 17.3115 25.095 17.6538 23.8526 18.3373C22.7295 18.9752 21.7526 19.8409 20.9848 20.8789C20.2166 21.9344 19.6284 23.1095 19.244 24.3567C18.851 25.5744 18.6478 26.8451 18.6414 28.1244H35.8709Z" fill="#C1C1C1"/>
<path id="Vector_5" d="M60.3206 36.975C60.3311 38.0968 60.0627 39.2038 59.5395 40.1965C59.0153 41.1806 58.2845 42.04 57.3969 42.7157C56.4282 43.4546 55.3364 44.0169 54.172 44.3766C52.8468 44.7902 51.4649 44.9934 50.0766 44.9785C49.3831 44.9737 48.6903 44.9328 48.001 44.8559C47.2534 44.7779 46.528 44.6664 45.7692 44.5215C45.0579 44.3911 44.354 44.2237 43.6602 44.0199C43.0571 43.8506 42.4706 43.6267 41.9082 43.3511L42.455 41.1217C44.8467 42.1756 47.4291 42.7294 50.0431 42.7491C51.961 42.8016 53.8504 42.2774 55.4664 41.2443C56.178 40.8016 56.7595 40.1785 57.1515 39.4383C57.5436 38.6981 57.7322 37.8674 57.6982 37.0307C57.7128 36.2174 57.5045 35.4156 57.0956 34.7121C56.6655 34.0364 56.113 33.4466 55.4664 32.9732C54.7931 32.4474 54.0677 31.9917 53.3016 31.6132C52.4981 31.2119 51.6723 30.8329 50.8243 30.4985C49.7084 30.0192 48.5925 29.5287 47.6105 29.0271C46.6397 28.5615 45.7261 27.9855 44.8877 27.3105C44.1374 26.7115 43.5055 25.9781 43.0241 25.1479C42.557 24.2712 42.3298 23.2868 42.3657 22.2943C42.317 21.2933 42.5142 20.2955 42.9402 19.3881C43.3662 18.4808 44.008 17.6913 44.8096 17.0886C46.6468 15.7986 48.8597 15.152 51.1032 15.2493C53.8506 15.1845 56.5682 15.8296 58.9927 17.122L58.3901 19.3514C57.2107 18.7866 55.9817 18.3313 54.7188 17.9915C53.5189 17.6877 52.2852 17.5379 51.0474 17.5456C49.4675 17.4456 47.8987 17.8688 46.5838 18.7495C46.0602 19.1614 45.6445 19.694 45.3724 20.3017C45.1003 20.9095 44.9799 21.5741 45.0216 22.2385C45.0018 22.9662 45.1875 23.6847 45.5572 24.3119C45.948 24.9155 46.452 25.4378 47.0414 25.8502C47.704 26.312 48.406 26.7149 49.1393 27.0541C49.9278 27.4108 50.7424 27.7823 51.5831 28.1688C52.4237 28.5552 53.3164 28.9565 54.2612 29.3727C55.2804 29.8094 56.2433 30.367 57.1291 31.0336C58.0134 31.7028 58.7694 32.526 59.3609 33.4636C60.0192 34.5145 60.353 35.7358 60.3206 36.975Z" fill="#C1C1C1"/>
<path id="Vector_6" d="M81.1322 61.2088C80.8209 61.2087 80.5202 61.0956 80.2862 60.8906C80.0521 60.6855 79.9007 60.4024 79.8601 60.0941L72.696 1.43815C72.6665 1.10783 72.7664 0.77896 72.9745 0.520619C73.1827 0.262279 73.483 0.0945737 73.8123 0.0527301C74.1416 0.0108865 74.4744 0.0981612 74.7406 0.296222C75.0069 0.494283 75.186 0.787715 75.2402 1.11488L82.449 59.7597C82.49 60.0966 82.3955 60.4361 82.1863 60.7035C81.9771 60.971 81.6703 61.1447 81.3331 61.1865L81.1322 61.2088Z" fill="#C1C1C1"/>
<path id="Vector_7" d="M68.5445 62.0003C68.2051 61.9974 67.8804 61.8614 67.6403 61.6216C67.4003 61.3818 67.2641 61.0575 67.2612 60.7184V2.75359C67.2612 2.41361 67.3964 2.08755 67.6371 1.84714C67.8778 1.60674 68.2042 1.47168 68.5445 1.47168C68.8849 1.47168 69.2113 1.60674 69.4519 1.84714C69.6926 2.08755 69.8278 2.41361 69.8278 2.75359V60.7184C69.8278 61.0584 69.6926 61.3844 69.4519 61.6248C69.2113 61.8652 68.8849 62.0003 68.5445 62.0003Z" fill="#C1C1C1"/>
</g>
</g>
</g>
<defs>
<clipPath id="clip0_412_10">
<rect width="132.915" height="62" fill="white" transform="translate(0.787109)"/>
</clipPath>
</defs>
</svg>
