<svg width="247" height="62" viewBox="0 0 247 62" fill="none" xmlns="http://www.w3.org/2000/svg">
<g id="triptalelogo 1" clip-path="url(#clip0_412_28)">
<g id="Symbols">
<g id="nav/no-bg">
<g id="logo">
<path id="triptale" d="M87.5995 47.1044C89.9245 47.1044 91.18 46.8254 93.598 46.2209V43.3844C92.0635 43.7099 91.087 43.8494 90.0175 43.8494C88.204 43.8494 87.553 43.4309 87.553 41.7104V25.2029H92.9935V22.5524H87.553V13.0664H84.112C84.112 19.4834 83.2285 22.5059 78.439 22.5524V25.2029H82.531V41.4779C82.531 43.8029 82.717 44.7329 83.182 45.4769C83.833 46.5464 85.321 47.1044 87.5995 47.1044ZM110.849 46.4999V43.6634H106.571C105.688 43.6634 105.176 43.1984 105.176 41.8964V33.2009C105.176 29.4344 108.803 24.3659 112.756 24.5984C112.151 25.2494 111.593 26.1794 111.593 27.1559C111.593 28.7369 112.663 29.7599 114.244 29.7599C116.476 29.7599 117.592 28.3649 117.592 26.2259C117.592 23.3429 115.639 21.7619 112.709 21.7619C108.245 21.7619 106.432 25.1099 104.665 28.2254L105.176 25.5749V21.7619L95.9694 22.5989V25.2494H99.0385C99.5034 25.2494 100.154 25.4819 100.154 26.4584V41.8964C100.154 43.3844 99.271 43.6634 98.806 43.6634H96.2485V46.4999H110.849ZM125.543 18.5534C127.31 18.5534 128.845 17.2049 128.845 15.3449C128.845 13.6244 127.357 12.1364 125.683 12.1364C123.823 12.1364 122.474 13.7174 122.474 15.4844C122.474 17.2049 123.823 18.5534 125.543 18.5534ZM132.518 46.4999V43.6634H129.961C129.031 43.6634 128.519 43.1984 128.519 41.8964V21.6689L119.591 22.4594V25.1099H122.428C122.893 25.1099 123.544 25.3889 123.544 26.3189V41.8964C123.544 43.3844 122.614 43.6634 122.149 43.6634H119.638V46.4999H132.518ZM147.445 58.3574V55.5209H144.515C143.585 55.5209 143.074 55.0559 143.074 53.7539V43.2914C144.608 46.2674 147.584 47.0114 150.979 47.0114C158.14 47.0114 161.162 40.9664 161.162 34.4564C161.162 27.6674 157.628 21.6689 150.188 21.6689C146.608 21.6689 144.004 23.9939 142.19 27.1094L142.702 24.7844V21.6689L134.053 22.4594V25.1099H137.075C137.587 25.1099 138.191 25.3889 138.191 26.3189V53.7539C138.191 55.2419 137.308 55.5209 136.843 55.5209H134.332V58.3574H147.445ZM149.816 43.8029C145.817 43.8029 142.934 40.6409 142.934 36.7349V32.4569C142.934 28.7369 146.05 24.7379 149.212 24.7379C154.559 24.7379 155.629 30.1319 155.629 34.4564C155.629 38.5484 154.838 43.8029 149.816 43.8029ZM172.508 47.1044C174.833 47.1044 176.089 46.8254 178.507 46.2209V43.3844C176.972 43.7099 175.996 43.8494 174.926 43.8494C173.113 43.8494 172.462 43.4309 172.462 41.7104V25.2029H177.902V22.5524H172.462V13.0664H169.021C169.021 19.4834 168.137 22.5059 163.348 22.5524V25.2029H167.44V41.4779C167.44 43.8029 167.626 44.7329 168.091 45.4769C168.742 46.5464 170.23 47.1044 172.508 47.1044ZM188.551 47.2439C191.62 47.2439 195.433 45.8954 196.688 42.7799C196.874 45.3839 197.897 47.1509 200.92 47.1509C202.222 47.1509 203.431 46.9649 204.919 46.4069V43.5239C204.221 43.8494 203.477 44.1284 202.78 44.1284C201.571 44.1284 201.338 43.5239 201.338 42.1754V27.9464C201.338 23.0174 196.084 21.6689 191.992 21.6689C188.551 21.6689 182.692 22.7849 182.692 27.3884C182.692 29.3879 183.761 30.7829 185.9 30.7829C187.481 30.7829 188.783 29.7134 188.783 27.9464C188.783 26.9234 188.318 26.1794 187.342 25.6679C188.179 25.0169 189.76 24.5984 191.341 24.5984C193.898 24.5984 196.456 25.7144 196.456 28.9694V31.0154C193.666 31.3874 191.248 31.9454 188.644 32.8289C184.738 34.1774 181.436 36.3629 181.436 40.8269C181.436 45.1049 184.552 47.2439 188.551 47.2439ZM189.76 43.4774C187.807 43.4774 186.551 41.8964 186.551 39.9434C186.551 35.3399 195.107 33.8519 196.456 33.8519V37.0604C196.456 40.8269 193.48 43.4774 189.76 43.4774ZM220.031 46.4999V43.6634H217.427C216.544 43.6634 216.032 43.1984 216.032 41.8964V11.0669L206.825 11.8574V14.5079H209.894C210.406 14.5079 211.01 14.7404 211.01 15.7169V41.8964C211.01 43.3844 210.127 43.6634 209.662 43.6634H207.151V46.4999H220.031ZM235.004 47.1974C241.979 47.1974 245.932 41.8499 245.932 38.4554H242.816C242.816 38.4554 241.607 43.8029 235.655 43.8029C231.703 43.8029 228.355 41.7569 228.355 35.0144H246.211C246.211 27.4349 242.909 21.6689 234.865 21.6689C227.332 21.6689 222.728 27.2489 222.728 34.5029C222.728 41.8034 226.913 47.1974 235.004 47.1974ZM240.305 31.8989H228.494C228.494 28.0859 230.68 24.7844 234.679 24.7844C238.957 24.7844 240.305 28.2254 240.305 31.8989Z" fill="#C1C1C1"/>
<path id="Combined-Shape" fill-rule="evenodd" clip-rule="evenodd" d="M31.3809 0C48.5017 0 62.3808 13.8792 62.3808 31C62.3808 48.1208 48.5017 62 31.3809 62C14.26 62 0.380859 48.1208 0.380859 31C0.380859 13.8792 14.26 0 31.3809 0ZM32.7449 13.95H29.3039C29.3039 20.367 28.4204 23.3895 23.6309 23.436V26.0865H27.7229V42.3615C27.7229 44.6865 27.9089 45.6165 28.3739 46.3605C29.0249 47.43 30.5129 47.988 32.7914 47.988C35.1164 47.988 36.3719 47.709 38.7899 47.1045V44.268C37.2554 44.5935 36.2789 44.733 35.2094 44.733C33.3959 44.733 32.7449 44.3145 32.7449 42.594V26.0865H38.1854V23.436H32.7449V13.95Z" fill="#C1C1C1"/>
</g>
</g>
</g>
</g>
<defs>
<clipPath id="clip0_412_28">
<rect width="246.278" height="62" fill="white" transform="translate(0.380859)"/>
</clipPath>
</defs>
</svg>
