<svg width="139" height="31" viewBox="0 0 155 30" fill="none" xmlns="http://www.w3.org/2000/svg">
<path d="M2.59793 18.0837V11.7824H0.939453V10.0961H2.59793V7.32263L4.76501 6.87888H6.02545V10.0961H8.98859V11.7824H6.02545V18.1502C6.02545 19.1487 6.31292 19.6368 7.08687 19.6368C7.90506 19.6368 8.30309 18.9046 8.74535 17.2849L10.0279 17.6177C9.60776 20.0584 8.47999 21.4562 6.06967 21.4562C3.85837 21.4562 2.59793 20.5243 2.59793 18.0837ZM9.68884 11.6271V10.0961H15.2392V11.6271L14.1999 11.7158L16.168 17.9727H16.2564L18.0033 13.2468L17.539 11.7158L16.5881 11.6271V10.0961H21.851V11.6271L20.7675 11.7158L22.8903 17.9949H22.9788L24.6815 11.7158L23.3547 11.6271V10.0961H27.5783V11.6271L26.4726 11.7158L23.5758 21.2122H20.878L18.8436 15.5765H18.7331L16.6544 21.2122H14.1336L10.6839 11.7158L9.68884 11.6271ZM27.7257 15.8427C27.7257 12.0264 30.0697 9.85203 33.2097 9.85203C36.0402 9.85203 37.9861 11.383 37.9861 14.7555C37.9861 15.044 37.964 15.643 37.9419 15.9537H31.308C31.3301 18.0171 31.7945 19.6146 33.7847 19.6146C35.1557 19.6146 35.7969 18.8159 36.3277 17.6177L37.8977 18.1724C37.2343 20.2581 35.5979 21.4562 33.2318 21.4562C29.6495 21.4562 27.7257 19.1931 27.7257 15.8427ZM31.3301 14.4893H34.5144V14.0899C34.5144 12.0708 34.2269 11.1833 33.077 11.1833C31.7724 11.1833 31.3743 12.6477 31.3301 14.4893ZM39.1065 10.1627L43.3743 10.0073L43.5291 12.1152H43.6618C44.2146 10.9836 45.1655 9.85203 47.3989 9.85203C49.5881 9.85203 50.8264 10.8727 50.8264 13.4686V19.5037L52.2196 19.659V21.2122H46.3596V19.659L47.3989 19.5037V13.9124C47.3989 12.7142 47.2441 11.9155 46.0279 11.9155C44.8338 11.9155 43.9051 12.6255 43.9051 14.4227V19.5037L45.0328 19.659V21.2122H39.1065V19.659L40.4775 19.5037V11.8489L39.1065 11.6936V10.1627ZM53.7159 18.0837V11.7824H52.0574V10.0961H53.7159V7.32263L55.8829 6.87888H57.1434V10.0961H60.1065V11.7824H57.1434V18.1502C57.1434 19.1487 57.4309 19.6368 58.2048 19.6368C59.023 19.6368 59.421 18.9046 59.8633 17.2849L61.1458 17.6177C60.7257 20.0584 59.5979 21.4562 57.1876 21.4562C54.9763 21.4562 53.7159 20.5243 53.7159 18.0837ZM60.5856 11.6271V10.0961H66.6888V11.6271L65.3178 11.7158L67.2859 17.8618H67.3743L69.4751 11.7158L68.1262 11.6271V10.0961H72.3719V11.6271L71.2662 11.7158L67.308 22.6322C66.5562 24.74 65.8264 25.8938 63.7036 25.8938C62.2883 25.8938 60.851 25.2281 60.851 23.564C60.851 22.5434 61.5144 21.7003 62.6864 21.7003C63.6594 21.7003 64.3006 22.2772 64.2785 23.5419L63.2834 24.0078C63.2392 24.4072 63.5046 24.6734 64.0132 24.6734C64.7871 24.6734 65.1188 24.0744 65.6274 22.61L66.2466 20.835H64.8535L61.5807 11.7158L60.5856 11.6271ZM80.6348 10.0961V11.7824H77.5611V19.5259L80.2589 19.7256V21.2122H72.6299V19.7256L74.1336 19.5259V11.7824H72.6962V10.0961H74.1336V9.65234C74.1336 6.19106 75.7257 4.06104 79.1532 4.06104C81.453 4.06104 82.4259 5.3923 82.4259 6.61262C82.4259 7.87732 81.7183 8.52077 80.7011 8.52077C79.5955 8.52077 79.0869 7.83295 79.0869 7.012C79.0869 6.81231 79.1311 6.63481 79.1974 6.45731L79.9935 6.36856C80.0377 6.21324 80.0599 6.05793 80.0599 5.9248C80.0599 5.41449 79.6618 5.25917 79.1974 5.25917C77.8707 5.25917 77.5611 6.32418 77.5611 7.69982V10.0961H80.6348ZM88.765 15.7096C88.765 12.803 88.4554 11.2055 86.7085 11.2055C85.05 11.2055 84.6962 12.803 84.6962 15.5543C84.6962 18.5274 85.05 20.0806 86.7748 20.0806C88.3891 20.0806 88.765 18.5052 88.765 15.7096ZM81.0697 15.7096C81.0697 12.2483 83.0599 9.85203 86.8191 9.85203C90.7773 9.85203 92.3915 12.2483 92.3915 15.6208C92.3915 19.0821 90.4898 21.4562 86.6864 21.4562C82.7724 21.4562 81.0697 19.0821 81.0697 15.7096ZM97.8461 10.0295V17.3959C97.8461 18.594 98.023 19.3928 99.2392 19.3928C100.367 19.3928 101.251 18.7049 101.251 16.8412V11.8046L100.035 11.6492V10.207L104.679 10.0073V19.5037L106.05 19.659V21.2122H101.76L101.627 19.2153H101.495C100.942 20.369 100.08 21.4562 97.9124 21.4562C95.7011 21.4562 94.4186 20.4356 94.4186 17.8396V11.8046L93.1802 11.6492V10.2292L97.8461 10.0295ZM111.77 19.5037L114.291 19.659V21.2122H106.905V19.659L108.342 19.5037V11.8489L106.905 11.6936V10.1848L111.416 10.0295L111.571 11.9377H111.659C112.19 10.8949 113.052 9.85203 114.844 9.85203C116.325 9.85203 117.475 10.6508 117.475 12.5146C117.475 13.9789 116.591 14.8443 115.33 14.8443C113.937 14.8443 113.451 13.9789 113.473 12.8252L114.357 12.5589C114.379 12.448 114.401 12.3592 114.401 12.2705C114.401 11.8933 114.136 11.738 113.76 11.738C112.522 11.738 111.77 13.2468 111.77 14.8886V19.5037Z" fill="#FFFFFF"/>
<path fill-rule="evenodd" clip-rule="evenodd" d="M146.148 19.8199H146.137H144.223V22.8934H144.219V22.906C143.715 22.9888 143.217 23.031 142.726 23.031C142.236 23.031 141.738 22.9888 141.236 22.906V22.8934H141.23V19.8199H132.864L132.859 17.6005L136.518 14.3507C138.289 12.8848 138.98 12.1124 138.98 10.9315C138.98 9.72997 138.186 9.07944 137.068 9.07944C136.011 9.07944 135.271 9.65 134.274 10.8508L134.084 11.1047C133.66 10.8648 133.265 10.5987 132.9 10.3047C132.536 10.0118 132.191 9.68248 131.867 9.32003L132.028 9.11994L132.032 9.12274C133.411 7.27382 134.772 6.27062 137.27 6.27062C140.222 6.27062 142.176 8.00081 142.176 10.6672V10.7073C142.176 13.0507 141.197 13.8915 139.326 15.5844H139.325L137.446 17.2747H141.23V15.8581L144.223 13.1726V17.2747H146.137V17.2758H146.148C146.218 17.7053 146.254 18.1292 146.254 18.5486C146.254 18.9662 146.218 19.3908 146.148 19.8199ZM139.061 0C130.776 0 124.061 6.71582 124.061 15.0002C124.061 23.2845 130.776 30 139.061 30C147.345 30 154.061 23.2845 154.061 15.0002C154.061 6.71582 147.345 0 139.061 0Z" fill="#FFFFFF"/>
</svg>
